<svg width="339pt" height="415pt"
 viewBox="0.00 0.00 339.00 415.40" xmlns="http://www.w3.org/2000/svg" xmlns:xlink="http://www.w3.org/1999/xlink">
<g id="graph0" class="graph" transform="scale(1 1) rotate(0) translate(4 411.4)">
<polygon fill="#ffffff" stroke="transparent" points="-4,4 -4,-411.4 335,-411.4 335,4 -4,4"/>
<g id="clust2" class="cluster">
<title>cluster_legend</title>
<polygon fill="#d3d3d3" stroke="#000000" points="119,-258.4 119,-399.4 323,-399.4 323,-258.4 119,-258.4"/>
<text text-anchor="middle" x="147.9909" y="-382.8" font-family="Times,serif" font-size="14.00" fill="#000000">Legend</text>
</g>
<!-- p_Pumping -->
<g id="node1" class="node">
<title>p_Pumping</title>
<ellipse fill="none" stroke="#000000" cx="63" cy="-316.5" rx="45.8291" ry="18"/>
<text text-anchor="middle" x="63" y="-312.3" font-family="Times,serif" font-size="14.00" fill="#000000">Pumping</text>
</g>
<!-- t_Stop -->
<g id="node4" class="node">
<title>t_Stop</title>
<polygon fill="none" stroke="#000000" points="54,-213.6 0,-213.6 0,-177.6 54,-177.6 54,-213.6"/>
<text text-anchor="middle" x="27" y="-191.4" font-family="Times,serif" font-size="14.00" fill="#000000">Stop</text>
</g>
<!-- p_Pumping&#45;&gt;t_Stop -->
<g id="edge5" class="edge">
<title>p_Pumping&#45;&gt;t_Stop</title>
<path fill="none" stroke="#000000" d="M48.336,-299.3539C38.2124,-286.3296 25.6206,-267.4615 20.1192,-248.4 17.8735,-240.6188 17.9707,-231.9797 19.0702,-223.9811"/>
<polygon fill="#000000" stroke="#000000" points="22.5457,-224.4397 20.9803,-213.9612 15.6696,-223.1289 22.5457,-224.4397"/>
<text text-anchor="middle" x="57.9404" y="-235.8" font-family="Times,serif" font-size="14.00" fill="#000000">PumpParams</text>
</g>
<!-- p_Idle -->
<g id="node2" class="node">
<title>p_Idle</title>
<ellipse fill="none" stroke="#000000" cx="51" cy="-106.8" rx="27" ry="18"/>
<text text-anchor="middle" x="51" y="-102.6" font-family="Times,serif" font-size="14.00" fill="#000000">Idle</text>
</g>
<!-- t_Start -->
<g id="node6" class="node">
<title>t_Start</title>
<polygon fill="none" stroke="#000000" points="135,-36 81,-36 81,0 135,0 135,-36"/>
<text text-anchor="middle" x="108" y="-13.8" font-family="Times,serif" font-size="14.00" fill="#000000">Start</text>
</g>
<!-- p_Idle&#45;&gt;t_Start -->
<g id="edge1" class="edge">
<title>p_Idle&#45;&gt;t_Start</title>
<path fill="none" stroke="#000000" d="M50.0299,-88.5146C50.2691,-77.7689 52.0347,-64.3143 58.2216,-54 61.8707,-47.9164 66.9841,-42.5639 72.5545,-37.9731"/>
<polygon fill="#000000" stroke="#000000" points="74.9573,-40.5498 80.9254,-31.7958 70.8008,-34.9174 74.9573,-40.5498"/>
<text text-anchor="middle" x="76.8892" y="-58.2" font-family="Times,serif" font-size="14.00" fill="#000000">Signal</text>
</g>
<!-- p_SetParams -->
<g id="node3" class="node">
<title>p_SetParams</title>
<ellipse fill="none" stroke="#000000" cx="196" cy="-106.8" rx="51.5996" ry="18"/>
<text text-anchor="middle" x="196" y="-102.6" font-family="Times,serif" font-size="14.00" fill="#000000">SetParams</text>
</g>
<!-- p_SetParams&#45;&gt;t_Start -->
<g id="edge3" class="edge">
<title>p_SetParams&#45;&gt;t_Start</title>
<path fill="none" stroke="#000000" d="M179.0327,-89.6785C166.1032,-76.6314 148.0892,-58.4536 133.4376,-43.6688"/>
<polygon fill="#000000" stroke="#000000" points="135.652,-40.9311 126.127,-36.2917 130.6799,-45.8584 135.652,-40.9311"/>
<text text-anchor="middle" x="195.9404" y="-58.2" font-family="Times,serif" font-size="14.00" fill="#000000">PumpParams</text>
</g>
<!-- t_Stop&#45;&gt;p_Idle -->
<g id="edge6" class="edge">
<title>t_Stop&#45;&gt;p_Idle</title>
<path fill="none" stroke="#000000" d="M31.9728,-177.2006C35.2989,-164.8941 39.7371,-148.4728 43.4904,-134.5855"/>
<polygon fill="#000000" stroke="#000000" points="46.9669,-135.1367 46.1973,-124.5699 40.2094,-133.3103 46.9669,-135.1367"/>
<text text-anchor="middle" x="59.8892" y="-147" font-family="Times,serif" font-size="14.00" fill="#000000">Signal</text>
</g>
<!-- t_Prepare -->
<g id="node5" class="node">
<title>t_Prepare</title>
<polygon fill="none" stroke="#000000" points="234.2481,-213.6 175.7519,-213.6 175.7519,-177.6 234.2481,-177.6 234.2481,-213.6"/>
<text text-anchor="middle" x="205" y="-191.4" font-family="Times,serif" font-size="14.00" fill="#000000">Prepare</text>
</g>
<!-- t_Prepare&#45;&gt;p_SetParams -->
<g id="edge2" class="edge">
<title>t_Prepare&#45;&gt;p_SetParams</title>
<path fill="none" stroke="#000000" d="M203.1352,-177.2006C201.8961,-164.975 200.2455,-148.6887 198.8439,-134.8599"/>
<polygon fill="#000000" stroke="#000000" points="202.3222,-134.4681 197.8316,-124.872 195.3579,-135.174 202.3222,-134.4681"/>
<text text-anchor="middle" x="237.9404" y="-147" font-family="Times,serif" font-size="14.00" fill="#000000">PumpParams</text>
</g>
<!-- t_Start&#45;&gt;p_Pumping -->
<g id="edge4" class="edge">
<title>t_Start&#45;&gt;p_Pumping</title>
<path fill="none" stroke="#000000" d="M109.1208,-36.2639C111.0585,-75.6842 113.1639,-171.403 94,-248.4 90.4598,-262.6237 84.0179,-277.5389 77.92,-289.7726"/>
<polygon fill="#000000" stroke="#000000" points="74.6604,-288.4557 73.1654,-298.9446 80.875,-291.6773 74.6604,-288.4557"/>
<text text-anchor="middle" x="145.9404" y="-147" font-family="Times,serif" font-size="14.00" fill="#000000">PumpParams</text>
</g>
<!-- Signal -->
<g id="node7" class="node">
<title>Signal</title>
<polygon fill="none" stroke="#000000" points="261,-291.7 261,-341.3 315,-341.3 315,-291.7 261,-291.7"/>
<text text-anchor="middle" x="287.8892" y="-324.7" font-family="Times,serif" font-size="14.00" fill="#000000">Signal</text>
<polyline fill="none" stroke="#000000" points="261,-316.5 314.7784,-316.5 "/>
<text text-anchor="middle" x="287.8892" y="-299.9" font-family="Times,serif" font-size="14.00" fill="#000000">signal</text>
</g>
<!-- PumpParams -->
<g id="node8" class="node">
<title>PumpParams</title>
<polygon fill="none" stroke="#000000" points="126.6192,-266.9 126.6192,-366.1 243.3808,-366.1 243.3808,-266.9 126.6192,-266.9"/>
<text text-anchor="middle" x="184.5596" y="-349.5" font-family="Times,serif" font-size="14.00" fill="#000000">PumpParams</text>
<polyline fill="none" stroke="#000000" points="126.6192,-341.3 243.3808,-341.3 "/>
<text text-anchor="middle" x="155.6171" y="-324.7" font-family="Times,serif" font-size="14.00" fill="#000000">Field</text>
<polyline fill="none" stroke="#000000" points="126.6192,-316.5 184.615,-316.5 "/>
<text text-anchor="middle" x="155.6171" y="-299.9" font-family="Times,serif" font-size="14.00" fill="#000000">flow</text>
<polyline fill="none" stroke="#000000" points="126.6192,-291.7 184.615,-291.7 "/>
<text text-anchor="middle" x="155.6171" y="-275.1" font-family="Times,serif" font-size="14.00" fill="#000000">volume</text>
<polyline fill="none" stroke="#000000" points="184.615,-266.9 184.615,-341.3 "/>
<text text-anchor="middle" x="213.9979" y="-324.7" font-family="Times,serif" font-size="14.00" fill="#000000">Type</text>
<polyline fill="none" stroke="#000000" points="184.615,-316.5 243.3808,-316.5 "/>
<text text-anchor="middle" x="213.9979" y="-299.9" font-family="Times,serif" font-size="14.00" fill="#000000">number</text>
<polyline fill="none" stroke="#000000" points="184.615,-291.7 243.3808,-291.7 "/>
<text text-anchor="middle" x="213.9979" y="-275.1" font-family="Times,serif" font-size="14.00" fill="#000000">number</text>
</g>
</g>
</svg>
